<svg xmlns="http://www.w3.org/2000/svg" width="1080" height="1350" viewBox="0 0 1080 1350">
  <rect width="1080" height="1350" fill="#f6f4ef"/>
  <rect x="34" y="34" width="1012" height="1282" rx="36" fill="#080808"/>
  
  <rect x="34" y="34" width="1012" height="1282" rx="36" fill="#000000" opacity="0"/>
  <rect x="64" y="64" width="952" height="594" rx="24" fill="#c94f3b" opacity=".86"/>
  <rect x="64" y="64" width="952" height="594" rx="24" fill="#000000" opacity=".24"/>
  <circle cx="824" cy="194" r="166" fill="#fffdfa" opacity=".18"/>
  <circle cx="282" cy="418" r="118" fill="#fffdfa" opacity=".16"/>
  <path d="M116 534c144-180 320-180 464 0s280 180 396-24" fill="none" stroke="#fffdfa" stroke-width="24" opacity=".18"/>
  <rect x="34" y="650" width="1012" height="666" rx="36" fill="#000000" opacity=".42"/>
  <rect x="88" y="82" width="116" height="48" rx="20" fill="#c94f3b" opacity=".94"/>
  <text x="106" y="114" font-family="Arial, Helvetica, sans-serif" font-size="21" font-weight="900" fill="#ffffff">EVENT</text>
  <rect x="884" y="74" width="106" height="54" rx="27" fill="#050505" opacity=".78"/>
  <text x="938" y="110" text-anchor="middle" font-family="Arial, Helvetica, sans-serif" font-size="25" font-weight="700" fill="#ffffff">6/6</text>
  <text x="88" y="702" font-family="Arial, Helvetica, sans-serif" font-size="22" font-weight="800" fill="#cfc7bc">@things2doinblr</text>
  <text x="88" y="812" text-anchor="start" font-family="Impact, Arial Black, Arial, Helvetica, sans-serif" font-size="76" font-weight="950" fill="#ffffff" letter-spacing="1">Verification</text>
<text x="88" y="890" text-anchor="start" font-family="Impact, Arial Black, Arial, Helvetica, sans-serif" font-size="76" font-weight="950" fill="#ffffff" letter-spacing="1">Required</text>
  <text x="92" y="1040" text-anchor="start" font-family="Impact, Arial Black, Arial, Helvetica, sans-serif" font-size="30" font-weight="500" fill="#fffdfa" letter-spacing="1">No current trusted listing was verified</text>
<text x="92" y="1080" text-anchor="start" font-family="Impact, Arial Black, Arial, Helvetica, sans-serif" font-size="30" font-weight="500" fill="#fffdfa" letter-spacing="1">for this slot.</text>
  <line x1="64" y1="1110" x2="1016" y2="1110" stroke="#fffdfa" stroke-width="2" opacity=".38"/>
  <text x="88" y="1162" font-family="Arial, Helvetica, sans-serif" font-size="25" font-weight="900" fill="#ffffff">PIN</text>
  <text x="132" y="1162" font-family="Arial, Helvetica, sans-serif" font-size="25" font-weight="500" fill="#f4efe8">Check trusted listings, Bengaluru</text>
  <text x="88" y="1210" font-family="Arial, Helvetica, sans-serif" font-size="25" font-weight="900" fill="#ffffff">CAL</text>
  <text x="132" y="1210" font-family="Arial, Helvetica, sans-serif" font-size="25" font-weight="500" fill="#f4efe8">19 Jul</text>
  <text x="88" y="1258" font-family="Arial, Helvetica, sans-serif" font-size="25" font-weight="900" fill="#ffffff">TAG</text>
  <text x="132" y="1258" font-family="Arial, Helvetica, sans-serif" font-size="25" font-weight="500" fill="#f4efe8">Verification Required</text>
  <text x="88" y="1306" font-family="Arial, Helvetica, sans-serif" font-size="21" font-weight="700" fill="#d7d0c8">Source: Verified source</text>
  </svg>